<?xml version="1.0" encoding="utf-8"?>
<!-- Generator: Adobe Illustrator 26.5.0, SVG Export Plug-In . SVG Version: 6.00 Build 0)  -->
<svg version="1.1" id="Layer_1" xmlns="http://www.w3.org/2000/svg" xmlns:xlink="http://www.w3.org/1999/xlink" x="0px" y="0px"
	 viewBox="0 0 133 30" style="enable-background:new 0 0 133 30;" xml:space="preserve">
<style type="text/css">
	.st0{fill:#FFFFFF;}
</style>
<path id="Combined-Shape" class="st0" d="M114,8.5c1.9,1.1,2.5,1.9,2.5,3.9l0,0v2.8l0,0v5.5l2.4,1.6l2-2.1v-7.6v-0.1
	c0-0.6-0.2-1.3-0.9-1.3c-0.5,0-0.9,0.3-1.2,0.6l0,0l-0.5-0.5l0.9-1l6.7,2.2v2.7v4.4c0,3.7,1.8,4.4,1.8,6.7c0,1.8-3.6,3-5.2,3.6
	c-1.3-0.5-2.7-0.9-4.1-0.9c-2,0-3.9,0.2-5.8,0.7l0,0l-0.4-0.4l3.5-3.7l0.7,0.3l-0.7,0.8c1.2-0.2,2.5-0.3,3.7-0.3
	c1.9,0,3.6,0.5,5.3,1.3l0,0l0.7-0.4c-2.2-1.4-4.3-3.7-4.5-6.1l0,0l-3.2,3.4l-0.3,0.3l-0.6-0.4l-4.2-2.7v-9.2c0-0.7-0.2-1.4-0.9-1.4
	c-0.5,0-0.9,0.3-1.2,0.6l0,0l-0.5-0.5L114,8.5z M68,7.7l5.7,2.4l3.2-1.5v3.7c-1.1-0.2-2.1-0.5-3.2-0.8l0,0v8.2
	c0,3.6,3.1,4.4,3.1,6.6c0,1.8-3.8,3-5.4,3.6C70,29.4,68.6,29,67.1,29c-2.1,0-4,0.2-6,0.7l0,0l-0.4-0.4l3.6-3.7l0.7,0.3l-0.7,0.8
	c1.3-0.2,2.6-0.3,3.8-0.3c1.9,0,3.8,0.5,5.5,1.3l0,0l0.7-0.4c-2.3-1.3-4.4-3.7-4.7-6.1l0,0l-3.3,3.4L66.1,25l-0.6-0.4L61.1,22V9.9
	C63.6,9.6,65.9,8.8,68,7.7L68,7.7z M109.3,0.5l0.2,0.6c-1.9,1.3-2.1,2.5-2.1,4.7v16.9l1.9,1.3l0.8-0.6l0.6,0.6l-3.8,3
	c-1.3-1.4-2.9-2.3-4.8-2.8v-0.6c1.3-0.6,1.3-1.4,1.3-2.8v-15c0-1.9-0.1-3.2-1.9-4.2l0.2-0.6c1.1,0.5,2.1,1,3.1,1.8
	C106.1,1.7,107.7,0.9,109.3,0.5z M7.7,0.5l0.2,0.6C6,2.4,5.8,3.6,5.8,5.8v16.9L7.7,24l0.8-0.6L9.1,24l-3.8,3
	c-1.3-1.4-2.9-2.3-4.8-2.8v-0.6c1.3-0.6,1.4-1.4,1.4-2.8v-15C1.9,4,1.8,2.7,0,1.7l0.2-0.6c1.1,0.5,2.1,1,3.1,1.8
	C4.4,1.7,6,0.9,7.7,0.5z M37.8,7.7l3.3,2.8l-1.3,1.1v10.1c0,0.6,0,2.1,1,2.1c0.4,0,0.7-0.2,0.9-0.4l0.6,0.6l-4,2.9
	c-1.8-1.3-2.4-2.4-2.4-4.6l-5.2,4.6c-1.3-1.2-2.7-2.2-4.3-2.9v-0.5c1-0.4,1.1-1,1.1-1.8v-10l-0.8-0.6l-0.8,0.6l-0.5-0.6l4-3.4
	l3.3,2.8l-1.3,1.1v10.9l1.7,1.3l2.8-2.4v-9.8l-1.4-1.1L37.8,7.7z M97,0.8l3.8,0.9l-0.6,3l-3.3-0.8v4.7h2.6v2h-2.6v12.2
	c0.7,0.5,1.3,0.9,1.9,1.4l1.2-0.9l0.6,0.5L96.5,27c-1.4-1.3-2.9-2.2-4.7-2.8v-0.4c1.2-0.7,1.2-2,1.2-3.2v-10h-1.5v-2H93V3.8
	C94.4,2.8,95.7,1.8,97,0.8z M85.7,7.7l5.1,6l-7.5,5.7v3.5c1.2,0.5,2.4,1.1,3.6,1.7l2.9-1.9l0.4,0.5l-6,3.8c-2-1.1-4.1-2.1-6.4-2.4
	v-0.4c1.3-0.7,1.4-2,1.4-3.2v-7.5c0-0.9-0.3-1.5-1.4-1.5l-0.2-0.4C80.4,10.3,83.1,9.1,85.7,7.7z M53.9,7.7l3,2.7l1.9-1.7l0.6,0.6
	c-1.8,1.6-2.1,2.5-2.1,4.9v6.9c0,0.6,0,1.3,0.2,1.8c0.1,0.3,0.4,0.6,0.8,0.6c0.5,0,0.9-0.4,1.3-0.7l0.5,0.8l-4.3,3.2
	c-2.1-1.8-2.5-3-2.5-5.6v-9.5l-1.6-1.5l-2.8,2.2v10.4l1.4,1.4l-3.5,2.7l-3.5-2.8l1.6-1.4V13c0-0.2,0-0.5,0-0.8
	c0-0.7-0.1-1.6-0.9-1.6c-0.4,0-0.7,0.2-1,0.4l-0.5-0.6l4.1-2.8c1.6,1.1,2.3,1.9,2.3,3.9L53.9,7.7z M17.5,7.7c1.9,1.3,4,2.2,6.3,2.7
	v13.5c-2,0.8-4.1,1.7-5.8,3c-2.1-1.6-4.6-2.7-7.3-2.9v-0.4c0.5-0.4,0.9-0.8,1-1.4c0.1-1,0.2-1.9,0.2-2.8v-8.6
	C14,10.2,15.9,9.1,17.5,7.7z M15.8,10.6v11.5l4.2,1.7V12.4L15.8,10.6z M65.1,10.1v10.7l2.5,1.6l2.1-2.1v-8.8L65.1,10.1z M83.3,10
	v8.1l4.2-3.1L83.3,10z M123.7,0.8c0.7,0.2,1.1,0.9,0.9,1.6c-0.2,0.5-0.6,0.8-1.1,0.9c-0.2,1.9-0.3,3.7,0.6,3.9l0,0
	c0.9,0.2,1.9-1.2,2.8-2.9c-0.3-0.3-0.5-0.8-0.3-1.3c0.2-0.7,1-1.1,1.7-0.8c0.7,0.2,1.1,0.9,0.9,1.6c-0.2,0.6-0.8,1-1.5,0.9
	c-0.7,1.7-1.3,3.7-0.5,3.9c0.6,0.2,1.6-0.6,2.8-1.6c-0.1-0.3-0.2-0.6-0.1-0.9c0.2-0.6,0.9-1,1.5-0.8s1,0.9,0.8,1.5s-0.9,1-1.5,0.8
	c-0.1,0-0.1,0-0.2-0.1l-3.2,3.9l-8.5-2.6l-0.2-5h-0.1c-0.6-0.2-1-0.9-0.8-1.5s0.9-1,1.5-0.8s1,0.9,0.8,1.5c-0.1,0.3-0.3,0.5-0.6,0.7
	c0.3,1.5,0.8,2.7,1.3,2.9c0.7,0.2,1.4-1.6,1.9-3.5c-0.6-0.3-0.9-0.9-0.6-1.5C122.3,1,123,0.6,123.7,0.8z"/>
</svg>
