<?xml version="1.0" encoding="UTF-8"?>
<svg width="33px" height="30px" viewBox="0 0 33 30" version="1.1" xmlns="http://www.w3.org/2000/svg" xmlns:xlink="http://www.w3.org/1999/xlink">
    <defs>
        <rect id="path-1" x="0" y="0" width="77.4171813" height="37"></rect>
        <mask id="mask-2" maskContentUnits="userSpaceOnUse" maskUnits="objectBoundingBox" x="0" y="0" width="77.4171813" height="37" fill="white">
            <use xlink:href="#path-1"></use>
        </mask>
    </defs>
    <g id="Doorways-into-Loyalty" stroke="none" stroke-width="1" fill="none" fill-rule="evenodd">
        <g id="Funko-&amp;-Loungefly-Headers-with-Loyalty" transform="translate(-1765.000000, -6.000000)">
            <g id="Funko/Header/Desktop//1920" transform="translate(-1.000000, 0.000000)">
                <g id="Group-11" transform="translate(1744.009350, 2.500000)">
                    <g id="Logo/Brand/Safe-Zone" fill="#FF0000" fill-opacity="0.369189176" opacity="0" stroke="#FF0000" stroke-dasharray="10" stroke-linecap="square" stroke-opacity="0.5186281" stroke-width="6">
                        <use id="Rectangle" mask="url(#mask-2)" xlink:href="#path-1"></use>
                    </g>
                    <path d="M30.2157589,12.9498641 L30.2157589,15.5499484 C30.0262122,15.5275339 29.7083265,15.510723 29.262102,15.4995157 C28.8158774,15.4883085 28.507864,15.5817023 28.3380617,15.7796972 C28.1682595,15.9776921 28.0833583,16.1962337 28.0833583,16.4353219 L28.0833583,17.4663899 L30.2986856,17.4663899 L30.2986856,19.7190491 L28.0833583,19.7190491 L28.0833583,29.5702307 L24.7189042,29.5702307 L24.7189042,19.7190491 L22.8352837,19.7190491 L22.8352837,17.4663899 L24.6833642,17.4663899 L24.6833642,16.6818816 C24.6833642,15.374368 24.9163487,14.4740514 25.3823177,13.980932 C25.87198,13.2487243 27.0526981,12.8826205 28.9244719,12.8826205 C29.1377119,12.8826205 29.3312075,12.8882241 29.5049587,12.8994314 C29.6787099,12.9106386 29.9156433,12.9274495 30.2157589,12.9498641 Z" id="Path" fill="#FFFFFF" fill-rule="nonzero"></path>
                    <path d="M31.7567515,18.6767739 C32.6492006,17.600877 34.1813699,17.0629285 36.3532593,17.0629285 C37.7669619,17.0629285 39.0227089,17.328167 40.1205003,17.858644 C41.2182917,18.3891209 41.7671874,19.3903028 41.7671874,20.8621896 L41.7671874,26.4658197 C41.7671874,26.854338 41.7750851,27.3250429 41.7908807,27.8779344 C41.814574,28.2963388 41.8817052,28.5802561 41.9922741,28.7296862 C42.102843,28.8791163 42.2686964,29.0023962 42.4898342,29.0995258 L42.4898342,29.5702307 L38.8173666,29.5702307 C38.7146955,29.323671 38.6436155,29.0920543 38.6041266,28.8753806 C38.5646377,28.6587069 38.5330465,28.4121472 38.5093532,28.1357014 C38.0433842,28.6138778 37.5063352,29.021075 36.8982061,29.3572928 C36.1716104,29.7532826 35.3502413,29.9512775 34.4340989,29.9512775 C33.2652274,29.9512775 32.2997239,29.6356064 31.5375881,29.0042641 C30.7754524,28.3729218 30.3943845,27.4782088 30.3943845,26.3201253 C30.3943845,24.8183524 31.0064624,23.7312482 32.2306183,23.0588126 C32.9019296,22.6927088 33.889152,22.4312061 35.1922857,22.2743044 L36.3414127,22.1398173 C36.9653373,22.0651022 37.4115618,21.9717084 37.6800863,21.8596358 C38.1618509,21.6653766 38.4027332,21.3627806 38.4027332,20.9518477 C38.4027332,20.4512568 38.2191098,20.1056996 37.851863,19.9151762 C37.4846163,19.7246528 36.9455928,19.629391 36.2347926,19.629391 C35.4371169,19.629391 34.8724256,19.8161787 34.5407189,20.189754 C34.3037855,20.4661998 34.1458299,20.8397751 34.0668521,21.31048 L30.8090179,21.31048 C30.880098,20.2420546 31.1960092,19.3641526 31.7567515,18.6767739 Z M34.2682455,27.2615351 C34.5841567,27.5080949 34.9711479,27.6313747 35.4292191,27.6313747 C36.1558148,27.6313747 36.8251517,27.429644 37.4372296,27.0261827 C38.0493075,26.6227213 38.3671932,25.8867779 38.3908865,24.8183524 L38.3908865,23.6303829 C38.1776465,23.7573985 37.962432,23.8601317 37.745243,23.9385825 C37.5280541,24.0170334 37.2299129,24.0898805 36.8508195,24.1571241 L36.0926326,24.2916112 C35.3818324,24.4111553 34.8724256,24.5568497 34.5644122,24.7286944 C34.0431588,25.0200831 33.782532,25.4721093 33.782532,26.0847728 C33.782532,26.6301928 33.9444365,27.0224469 34.2682455,27.2615351 Z" id="Shape" fill="#FFFFFF" fill-rule="nonzero"></path>
                    <path d="M49.2242341,19.7190491 C48.079056,19.7190491 47.2932269,20.1785468 46.8667468,21.0975421 C46.645609,21.58319 46.5350401,22.2033251 46.5350401,22.9579473 L46.5350401,29.5702307 L43.1705859,29.5702307 L43.1705859,17.3767318 L46.42842,17.3767318 L46.42842,19.1586861 C46.8627979,18.5310796 47.2734825,18.0790534 47.6604737,17.8026077 C48.3554783,17.3094882 49.2360807,17.0629285 50.302281,17.0629285 C51.6370058,17.0629285 52.7288738,17.3935427 53.5778852,18.054771 C54.4268965,18.7159993 54.8514022,19.812443 54.8514022,21.3441018 L54.8514022,29.5702307 L51.3921746,29.5702307 L51.3921746,22.1398173 C51.3921746,21.4972677 51.3013502,21.0041483 51.1197012,20.660459 C50.7879945,20.0328524 50.1561721,19.7190491 49.2242341,19.7190491 Z" id="Path" fill="#FFFFFF" fill-rule="nonzero"></path>
                    <path d="M25.6415869,31.9661808 L25.1392766,31.9661808 L25.1392766,32.8299067 L24.6638194,32.8299067 L24.6638194,30.6272562 L25.8058644,30.6272562 C25.9690889,30.6302449 26.0946665,30.6491732 26.1825971,30.684041 C26.2705277,30.7189088 26.3450318,30.7702143 26.4061094,30.8379575 C26.4566563,30.8937461 26.4966727,30.9555119 26.5261584,31.0232551 C26.5556441,31.0909983 26.570387,31.1682057 26.570387,31.2548771 C26.570387,31.3594806 26.5424808,31.4623407 26.4866686,31.5634574 C26.4308563,31.6645741 26.3387135,31.7360532 26.21024,31.7778945 C26.3176522,31.8187397 26.3937359,31.8767697 26.438491,31.9519846 C26.4832461,32.0271995 26.5056237,32.1420143 26.5056237,32.2964289 L26.5056237,32.4443682 C26.5056237,32.5449867 26.5098359,32.6132281 26.5182604,32.6490921 C26.5308972,32.7058769 26.5603829,32.7477183 26.6067176,32.7746163 L26.6067176,32.8299067 L26.0712359,32.8299067 C26.056493,32.7810917 26.0459624,32.7417409 26.0396441,32.7118542 C26.0270073,32.6500883 26.0201624,32.5868281 26.0191094,32.5220736 L26.0159502,32.3173496 C26.013844,32.1768821 25.9867277,32.0832371 25.9346012,32.0364146 C25.8824746,31.9895921 25.7848032,31.9661808 25.6415869,31.9661808 Z M25.9369706,31.5656989 C26.0338522,31.5238575 26.082293,31.441171 26.082293,31.3176392 C26.082293,31.1841453 26.0354318,31.0944851 25.9417093,31.0486588 C25.8890563,31.022757 25.8100767,31.0098061 25.7047705,31.0098061 L25.1392766,31.0098061 L25.1392766,31.601563 L25.6905542,31.601563 C25.8000726,31.601563 25.8822114,31.5896083 25.9369706,31.5656989 Z" id="Shape" fill="#FFFFFF" fill-rule="nonzero"></path>
                    <polygon id="Path" fill="#FFFFFF" fill-rule="nonzero" points="30.8741434 31.8675547 29.7431555 31.8675547 29.7431555 32.4339078 31.0321026 32.4339078 31.0321026 32.8299067 29.2676983 32.8299067 29.2676983 30.6272562 30.9752372 30.6272562 30.9752372 31.0172778 29.7431555 31.0172778 29.7431555 31.4850048 30.8741434 31.4850048"></polygon>
                    <polygon id="Path" fill="#FFFFFF" fill-rule="nonzero" points="36.2643431 30.6272562 36.7587554 30.6272562 36.1032247 32.8299067 35.6388247 32.8299067 35.3576573 31.5417895 35.2755185 31.1159039 35.1933797 31.5417895 34.9122124 32.8299067 34.460449 32.8299067 33.8001796 30.6272562 34.3167062 30.6272562 34.6247266 31.8884754 34.6910695 32.2396442 34.7589919 31.895947 35.0212042 30.6272562 35.5345716 30.6272562 35.8110002 31.8884754 35.8820819 32.2396442 35.9531635 31.9019244"></polygon>
                    <path d="M40.5033362,32.3771231 L39.6456178,32.3771231 L39.4844994,32.8299067 L38.9758708,32.8299067 L39.8067362,30.6272562 L40.3564342,30.6272562 L41.1809812,32.8299067 L40.6533975,32.8299067 L40.5033362,32.3771231 Z M40.3674913,31.9975619 L40.0768464,31.1308473 L39.7767239,31.9975619 L40.3674913,31.9975619 Z" id="Shape" fill="#FFFFFF" fill-rule="nonzero"></path>
                    <path d="M44.7296926,31.9661808 L44.2273824,31.9661808 L44.2273824,32.8299067 L43.7519252,32.8299067 L43.7519252,30.6272562 L44.8939702,30.6272562 C45.0571947,30.6302449 45.1827723,30.6491732 45.2707029,30.684041 C45.3586335,30.7189088 45.4331376,30.7702143 45.4942152,30.8379575 C45.5447621,30.8937461 45.5847784,30.9555119 45.6142641,31.0232551 C45.6437499,31.0909983 45.6584927,31.1682057 45.6584927,31.2548771 C45.6584927,31.3594806 45.6305866,31.4623407 45.5747743,31.5634574 C45.5189621,31.6645741 45.4268192,31.7360532 45.2983457,31.7778945 C45.405758,31.8187397 45.4818417,31.8767697 45.5265968,31.9519846 C45.5713519,32.0271995 45.5937294,32.1420143 45.5937294,32.2964289 L45.5937294,32.4443682 C45.5937294,32.5449867 45.5979417,32.6132281 45.6063662,32.6490921 C45.6190029,32.7058769 45.6484886,32.7477183 45.6948233,32.7746163 L45.6948233,32.8299067 L45.1593416,32.8299067 C45.1445988,32.7810917 45.1340682,32.7417409 45.1277498,32.7118542 C45.1151131,32.6500883 45.1082682,32.5868281 45.1072151,32.5220736 L45.1040559,32.3173496 C45.1019498,32.1768821 45.0748335,32.0832371 45.0227069,32.0364146 C44.9705804,31.9895921 44.872909,31.9661808 44.7296926,31.9661808 Z M45.0250763,31.5656989 C45.121958,31.5238575 45.1703988,31.441171 45.1703988,31.3176392 C45.1703988,31.1841453 45.1235376,31.0944851 45.0298151,31.0486588 C44.977162,31.022757 44.8981824,31.0098061 44.7928763,31.0098061 L44.2273824,31.0098061 L44.2273824,31.601563 L44.77866,31.601563 C44.8881783,31.601563 44.9703171,31.5896083 45.0250763,31.5656989 Z" id="Shape" fill="#FFFFFF" fill-rule="nonzero"></path>
                    <path d="M49.3446286,32.8299067 L48.3415877,32.8299067 L48.3415877,30.6272562 L49.3446286,30.6272562 C49.488898,30.6292487 49.608947,30.6451883 49.7047756,30.675075 C49.8680001,30.7258824 50.0001593,30.8190293 50.1012532,30.9545157 C50.1823389,31.0641003 50.2376246,31.1826509 50.2671104,31.3101675 C50.2965961,31.4376842 50.3113389,31.5592235 50.3113389,31.6747854 C50.3113389,31.9676751 50.2492083,32.2157348 50.1249471,32.4189645 C49.9564573,32.692926 49.6963511,32.8299067 49.3446286,32.8299067 Z M49.7063552,31.1891264 C49.6315878,31.0695795 49.4836327,31.0098061 49.2624898,31.0098061 L48.8138857,31.0098061 L48.8138857,32.4473568 L49.2624898,32.4473568 C49.4920572,32.4473568 49.6521225,32.3402628 49.7426858,32.1260747 C49.7921797,32.0085203 49.8169266,31.8685509 49.8169266,31.7061664 C49.8169266,31.4820161 49.7800695,31.3096694 49.7063552,31.1891264 Z" id="Shape" fill="#FFFFFF" fill-rule="nonzero"></path>
                    <path d="M53.7873891,32.5116132 C53.9021728,32.5116132 53.9953687,32.4996586 54.0669769,32.4757492 C54.2028218,32.4299229 54.2707443,32.3447458 54.2707443,32.2202178 C54.2707443,32.1474935 54.2370463,32.0912069 54.1696504,32.0513579 C54.1022545,32.0125052 53.9964218,31.9781355 53.8521524,31.9482488 L53.605736,31.895947 C53.3635319,31.8441434 53.1960952,31.7878568 53.1034258,31.7270871 C52.9465196,31.6254723 52.8680666,31.4665747 52.8680666,31.2503941 C52.8680666,31.0531418 52.943887,30.8892631 53.0955278,30.7587578 C53.2471686,30.6282525 53.4698911,30.5629998 53.7636952,30.5629998 C54.0090585,30.5629998 54.2183545,30.6245166 54.3915831,30.7475502 C54.5648116,30.8705839 54.6556382,31.049157 54.6640627,31.2832695 L54.1965034,31.2832695 C54.188079,31.1507718 54.1270014,31.0566286 54.0132708,31.0008401 C53.9374504,30.9639798 53.8432014,30.9455497 53.7305238,30.9455497 C53.6052095,30.9455497 53.5051687,30.9694591 53.4304013,31.0172778 C53.355634,31.0650965 53.3182503,31.1318435 53.3182503,31.2175187 C53.3182503,31.2962204 53.3551074,31.3549976 53.4288217,31.3938503 C53.4762095,31.4197521 53.5773034,31.450137 53.7321034,31.4850048 L54.1333198,31.5761593 C54.309181,31.6160082 54.4418667,31.6693062 54.531377,31.7360532 C54.670381,31.8396604 54.7398831,31.9895921 54.7398831,32.1858481 C54.7398831,32.3870853 54.6585341,32.5542018 54.4958361,32.6871977 C54.3331382,32.8201935 54.1033075,32.8866914 53.8063442,32.8866914 C53.5030626,32.8866914 53.2645442,32.8211897 53.090789,32.6901863 C52.9170339,32.5591829 52.8301564,32.3791155 52.8301564,32.1499841 L53.2945564,32.1499841 C53.3092993,32.2506027 53.3382585,32.3258175 53.381434,32.3756287 C53.4604136,32.4662851 53.595732,32.5116132 53.7873891,32.5116132 Z" id="Path" fill="#FFFFFF" fill-rule="nonzero"></path>
                    <path d="M47.2643136,8.53095908 C47.2746759,7.66626041 48.04226,6.96495138 48.9779651,6.96440174 C49.9133715,6.96385209 50.6637498,7.6641458 50.6526369,8.52939412 C50.6426378,9.39353552 49.8753523,10.0943865 48.9397441,10.0949361 C48.8621318,10.0949361 48.7852136,10.0901573 48.7103372,10.0806988 C48.7103372,10.0806988 47.8647211,12.1433262 46.1734889,16.2685809 L33.8006572,16.268306 C32.2122517,12.1519932 31.4180489,10.0938369 31.4180489,10.0938369 C31.351485,10.1007227 31.2837508,10.1044023 31.2148383,10.1044023 C30.2792301,10.1044023 29.5290456,9.40400931 29.5397872,8.54050917 C29.5503593,7.67562728 30.3171606,6.97440986 31.2530593,6.97386021 C32.1884658,6.97340218 32.9380693,7.67378749 32.9276101,8.53839456 C32.9220416,8.95407133 32.743849,9.33062405 32.4543344,9.61056137 C33.5240471,11.345188 34.5955191,12.7109722 35.4184172,12.7109722 C36.4893001,12.7099645 36.6235983,10.0843707 36.4678976,7.60692163 C35.6010969,7.46667815 34.9493461,6.76794177 34.9597083,5.92538158 C34.9709422,4.98363335 35.8079311,4.21941286 36.8281808,4.21885558 C37.8473572,4.21830593 38.6651872,4.98161035 38.654042,5.92381662 C38.6458345,6.60097179 38.2121437,7.18619118 37.590487,7.46300622 C38.0941637,9.96231136 38.7537428,12.188023 40.0323234,12.1875573 C40.0461075,12.1870993 40.0615541,12.186 40.0761129,12.1843434 C41.3356476,12.1510975 42.042438,9.93383668 42.6026957,7.44812763 C42.002837,7.1669078 41.5941802,6.59041403 41.6025814,5.92225929 C41.6138153,4.97995378 42.4506105,4.21573329 43.4702711,4.21517601 C44.4908113,4.214634 45.3083508,4.97783917 45.2968102,5.92041951 C45.2861574,6.77262139 44.60244,7.47880088 43.718732,7.60719646 C43.5011562,10.0853784 43.5717231,12.7117966 44.6429046,12.7116134 C45.4694263,12.7109722 46.5793049,11.332966 47.6965276,9.58842289 C47.4242108,9.30950088 47.2592212,8.93817742 47.2642974,8.53095145" id="Icon/Crown/Deactive" fill="#FFC700"></path>
                </g>
            </g>
        </g>
    </g>
</svg>