<?xml version="1.0" encoding="UTF-8"?>
<svg width="25px" height="22px" viewBox="0 0 25 22" version="1.1" xmlns="http://www.w3.org/2000/svg" xmlns:xlink="http://www.w3.org/1999/xlink">
    <defs>
        <rect id="path-1" x="0" y="0" width="58.5859751" height="28"></rect>
        <mask id="mask-2" maskContentUnits="userSpaceOnUse" maskUnits="objectBoundingBox" x="0" y="0" width="58.5859751" height="28" fill="white">
            <use xlink:href="#path-1"></use>
        </mask>
    </defs>
    <g id="Doorways-into-Loyalty" stroke="none" stroke-width="1" fill="none" fill-rule="evenodd">
        <g id="Funko-&amp;-Loungefly-Headers-with-Loyalty" transform="translate(-1782.000000, -209.000000)">
            <g id="Loungefly/Header/Desktop/1920" transform="translate(-1.000000, 200.000000)">
                <g id="Group-11" transform="translate(1766.400136, 6.000000)">
                    <g id="Logo/Brand/Safe-Zone" fill="#FF0000" fill-opacity="0.369189176" opacity="0" stroke="#FF0000" stroke-dasharray="10" stroke-linecap="square" stroke-opacity="0.5186281" stroke-width="6">
                        <use id="Rectangle" mask="url(#mask-2)" xlink:href="#path-1"></use>
                    </g>
                    <g id="Group-10" transform="translate(17.280755, 3.189863)">
                        <g id="Group-8" transform="translate(0.000000, 6.559147)" fill="#111111" fill-rule="nonzero">
                            <path d="M5.58522446,0.0508870186 L5.58522446,2.0185184 C5.4417837,2.00155606 5.2012216,1.98883431 4.86353815,1.98035314 C4.52585471,1.97187197 4.29276348,2.04254839 4.16426447,2.19238238 C4.03576545,2.34221638 3.97151595,2.50759919 3.97151595,2.68853082 L3.97151595,3.46879843 L5.64797979,3.46879843 L5.64797979,5.17351356 L3.97151595,5.17351356 L3.97151595,12.6284618 L1.42544252,12.6284618 L1.42544252,5.17351356 L5.56636101e-14,5.17351356 L5.56636101e-14,3.46879843 L1.39854738,3.46879843 L1.39854738,2.87511655 C1.39854738,1.88564674 1.57485997,1.20432611 1.92748517,0.831154637 C2.29804046,0.277051546 3.19155684,2.10636938e-13 4.60803431,2.10636938e-13 C4.76940516,2.10636938e-13 4.91583426,0.00424058488 5.04732162,0.0127217546 C5.17880898,0.0212029244 5.35810993,0.0339246791 5.58522446,0.0508870186 Z" id="Path"></path>
                            <path d="M6.75138105,4.38476477 C7.42674794,3.57057247 8.58622739,3.16347632 10.2298194,3.16347632 C11.2996484,3.16347632 12.2499434,3.36419734 13.0807044,3.76563938 C13.9114655,4.16708141 14.326846,4.92473258 14.326846,6.03859287 L14.326846,10.2791778 C14.326846,10.5731916 14.3328227,10.9294008 14.3447761,11.3478051 C14.3627062,11.6644355 14.4135081,11.8792918 14.4971819,11.992374 C14.5808557,12.1054563 14.7063663,12.1987492 14.8737139,12.2722527 L14.8737139,12.6284618 L12.0945492,12.6284618 C12.0168522,12.441876 11.9630619,12.2665985 11.9331784,12.1026293 C11.9032949,11.93866 11.8793881,11.7520742 11.861458,11.5428721 C11.5088328,11.9047353 11.1024173,12.2128845 10.6422116,12.4673196 C10.0923553,12.7669876 9.47077873,12.9168216 8.77748174,12.9168216 C7.8929304,12.9168216 7.16227905,12.6779353 6.58552767,12.2001627 C6.0087763,11.7223901 5.72040061,11.0453101 5.72040061,10.1689225 C5.72040061,9.0324458 6.18359472,8.20977233 7.10998294,7.70090215 C7.61800229,7.4238506 8.36508956,7.22595664 9.35124476,7.10722026 L10.2208543,7.00544623 C10.6930135,6.9489051 11.030697,6.87822868 11.2339047,6.79341698 C11.5984833,6.64641004 11.7807726,6.41741846 11.7807726,6.10644223 C11.7807726,5.72761665 11.6418143,5.46611391 11.3638979,5.32193403 C11.0859814,5.17775414 10.6780718,5.1056642 10.1401689,5.1056642 C9.53652241,5.1056642 9.10918849,5.24701703 8.85816716,5.52972269 C8.67886622,5.73892488 8.55933225,6.02163053 8.49956527,6.37783966 L6.03417726,6.37783966 C6.08796755,5.56930148 6.32703548,4.90494318 6.75138105,4.38476477 Z M8.65197107,10.8813408 C8.891039,11.0679265 9.18389721,11.1612194 9.53054571,11.1612194 C10.0804019,11.1612194 10.5869271,11.0085584 11.0501212,10.7032362 C11.5133153,10.3979141 11.7538774,9.84098399 11.7718075,9.0324458 L11.7718075,8.13344181 C11.6104367,8.22956173 11.4475717,8.30730579 11.2832125,8.36667397 C11.1188533,8.42604216 10.8932329,8.48116977 10.6063514,8.53205679 L10.0325884,8.63383082 C9.49468552,8.72429663 9.10918849,8.83455184 8.87609726,8.96459644 C8.48163517,9.18510686 8.28440413,9.5271807 8.28440413,9.99081798 C8.28440413,10.4035682 8.40692645,10.7004092 8.65197107,10.8813408 Z" id="Shape"></path>
                            <path d="M19.9700165,5.17351356 C19.1033953,5.17351356 18.5087138,5.52124152 18.1859721,6.21669744 C18.0186245,6.5842148 17.9349508,7.05350619 17.9349508,7.62457162 L17.9349508,12.6284618 L15.3888773,12.6284618 L15.3888773,3.40094908 L17.8542653,3.40094908 L17.8542653,4.74945507 C18.1829837,4.27450956 18.493772,3.93243572 18.7866303,3.72323353 C19.3125797,3.35006206 19.9789815,3.16347632 20.7858358,3.16347632 C21.7958978,3.16347632 22.6221763,3.41367083 23.2646714,3.91405985 C23.9071664,4.41444886 24.228414,5.24418997 24.228414,6.40328317 L24.228414,12.6284618 L21.6106202,12.6284618 L21.6106202,7.00544623 C21.6106202,6.51919249 21.5418881,6.14602102 21.4044241,5.88593182 C21.1534027,5.41098631 20.6752669,5.17351356 19.9700165,5.17351356 Z" id="Path"></path>
                        </g>
                        <g id="Group-7" transform="translate(1.383757, 19.938894)" fill="#111111" fill-rule="nonzero">
                            <path d="M0.739932127,1.06186669 L0.359805445,1.06186669 L0.359805445,1.7154971 L0,1.7154971 L0,0.0486264833 L0.864250287,0.0486264833 C0.987771536,0.0508881802 1.08280321,0.0652122606 1.1493453,0.0915987244 C1.21588739,0.117985188 1.27226886,0.156810985 1.31848972,0.208076115 C1.35674146,0.250294457 1.38702409,0.297036193 1.40933761,0.348301323 C1.43165112,0.399566452 1.44280788,0.457993622 1.44280788,0.523582832 C1.44280788,0.602742224 1.42168973,0.680582292 1.37945343,0.757103037 C1.33721713,0.833623782 1.2674874,0.887716033 1.17026422,0.91937979 C1.25154917,0.950289647 1.30912601,0.994204262 1.34299474,1.05112363 C1.37686347,1.10804301 1.39379784,1.19492986 1.39379784,1.3117842 L1.39379784,1.4237382 C1.39379784,1.49988199 1.39698548,1.55152407 1.40336077,1.57866444 C1.41292371,1.62163668 1.43523722,1.65330043 1.47030132,1.67365571 L1.47030132,1.7154971 L1.06507193,1.7154971 C1.05391517,1.67855605 1.04594606,1.64877704 1.04116459,1.62616007 C1.03160166,1.57941833 1.02642173,1.53154575 1.02562482,1.48254232 L1.02323409,1.32761608 C1.02164027,1.22131633 1.0011198,1.15044982 0.961672692,1.11501657 C0.922225583,1.07958332 0.848312062,1.06186669 0.739932127,1.06186669 Z M0.963465742,0.75879931 C1.03678158,0.727135553 1.0734395,0.664561939 1.0734395,0.571078467 C1.0734395,0.470056006 1.03797695,0.402205099 0.967051843,0.367525746 C0.927206279,0.347924373 0.867437932,0.338123686 0.787746804,0.338123686 L0.359805445,0.338123686 L0.359805445,0.785939673 L0.776988502,0.785939673 C0.859867275,0.785939673 0.922026355,0.776892885 0.963465742,0.75879931 Z" id="Shape"></path>
                            <polygon id="Path" points="4.6997046 0.987230697 3.84382189 0.987230697 3.84382189 1.41582226 4.8192413 1.41582226 4.8192413 1.7154971 3.48401644 1.7154971 3.48401644 0.0486264833 4.77620809 0.0486264833 4.77620809 0.343777929 3.84382189 0.343777929 3.84382189 0.697733494 4.6997046 0.697733494"></polygon>
                            <polygon id="Path" points="8.7787747 0.0486264833 9.15292455 0.0486264833 8.65684728 1.7154971 8.3054094 1.7154971 8.09263409 0.740705735 8.03047501 0.418413926 7.96831593 0.740705735 7.75554061 1.7154971 7.41366567 1.7154971 6.9140023 0.0486264833 7.30488728 0.0486264833 7.53798383 1.00306257 7.58818924 1.26881196 7.63959002 1.00871682 7.83802093 0.0486264833 8.22651518 0.0486264833 8.43570439 1.00306257 8.48949591 1.26881196 8.54328742 1.01324021"></polygon>
                            <path d="M11.9866614,1.37285002 L11.3375771,1.37285002 L11.2156497,1.7154971 L10.8307416,1.7154971 L11.4595046,0.0486264833 L11.8754923,0.0486264833 L12.4994738,1.7154971 L12.1002212,1.7154971 L11.9866614,1.37285002 Z M11.8838598,1.08561451 L11.6639123,0.429722411 L11.4367926,1.08561451 L11.8838598,1.08561451 Z" id="Shape"></path>
                            <path d="M15.1849851,1.06186669 L14.8048584,1.06186669 L14.8048584,1.7154971 L14.445053,1.7154971 L14.445053,0.0486264833 L15.3093033,0.0486264833 C15.4328245,0.0508881802 15.5278562,0.0652122606 15.5943983,0.0915987244 C15.6609404,0.117985188 15.7173219,0.156810985 15.7635427,0.208076115 C15.8017945,0.250294457 15.8320771,0.297036193 15.8543906,0.348301323 C15.8767041,0.399566452 15.8878609,0.457993622 15.8878609,0.523582832 C15.8878609,0.602742224 15.8667427,0.680582292 15.8245064,0.757103037 C15.7822701,0.833623782 15.7125404,0.887716033 15.6153172,0.91937979 C15.6966022,0.950289647 15.754179,0.994204262 15.7880477,1.05112363 C15.8219165,1.10804301 15.8388508,1.19492986 15.8388508,1.3117842 L15.8388508,1.4237382 C15.8388508,1.49988199 15.8420385,1.55152407 15.8484138,1.57866444 C15.8579767,1.62163668 15.8802902,1.65330043 15.9153543,1.67365571 L15.9153543,1.7154971 L15.5101249,1.7154971 C15.4989682,1.67855605 15.4909991,1.64877704 15.4862176,1.62616007 C15.4766547,1.57941833 15.4714747,1.53154575 15.4706778,1.48254232 L15.4682871,1.32761608 C15.4666933,1.22131633 15.4461728,1.15044982 15.4067257,1.11501657 C15.3672786,1.07958332 15.2933651,1.06186669 15.1849851,1.06186669 Z M15.4085187,0.75879931 C15.4818346,0.727135553 15.5184925,0.664561939 15.5184925,0.571078467 C15.5184925,0.470056006 15.48303,0.402205099 15.4121048,0.367525746 C15.3722593,0.347924373 15.3124909,0.338123686 15.2327998,0.338123686 L14.8048584,0.338123686 L14.8048584,0.785939673 L15.2220415,0.785939673 C15.3049203,0.785939673 15.3670794,0.776892885 15.4085187,0.75879931 Z" id="Shape"></path>
                            <path d="M18.6773691,1.7154971 L17.9183111,1.7154971 L17.9183111,0.0486264833 L18.6773691,0.0486264833 C18.786546,0.0501342813 18.8773939,0.0621966647 18.9499128,0.0848136337 C19.073434,0.123262481 19.1734464,0.193752034 19.2499499,0.296282294 C19.3113121,0.37921118 19.3531499,0.468925157 19.3754634,0.565424225 C19.3977769,0.661923293 19.4089337,0.753898967 19.4089337,0.841351247 C19.4089337,1.06299754 19.3619159,1.25071839 19.2678804,1.40451377 C19.1403746,1.61183599 18.9435375,1.7154971 18.6773691,1.7154971 Z M18.9511082,0.4738255 C18.8945275,0.383357624 18.7825614,0.338123686 18.6152101,0.338123686 L18.2757259,0.338123686 L18.2757259,1.4259999 L18.6152101,1.4259999 C18.7889367,1.4259999 18.9100672,1.34495576 18.9786016,1.18286748 C19.0160564,1.0939074 19.0347839,0.987984596 19.0347839,0.865099064 C19.0347839,0.695471797 19.006892,0.565047275 18.9511082,0.4738255 Z" id="Shape"></path>
                            <path d="M22.0394582,1.47462638 C22.1263215,1.47462638 22.1968481,1.46557959 22.2510381,1.44748602 C22.3538397,1.41280666 22.4052404,1.3483483 22.4052404,1.25411093 C22.4052404,1.19907631 22.3797393,1.15648101 22.328737,1.12632506 C22.2777346,1.096923 22.197645,1.07091348 22.0884682,1.04829651 L21.901991,1.00871682 C21.7187014,0.969514071 21.5919925,0.926918779 21.5218643,0.880930942 C21.4031245,0.804033248 21.3437546,0.683786363 21.3437546,0.520190287 C21.3437546,0.370918292 21.4011322,0.246901912 21.5158874,0.148141147 C21.6306427,0.0493803823 21.7991894,0 22.0215277,0 C22.207208,0 22.3655941,0.0465532612 22.496686,0.139659784 C22.6277779,0.232766306 22.6965115,0.367902696 22.7028868,0.545068953 L22.3490582,0.545068953 C22.3426829,0.44480039 22.296462,0.373556938 22.2103956,0.331338596 C22.153018,0.303444334 22.0816945,0.289497203 21.9964249,0.289497203 C21.9015925,0.289497203 21.8258859,0.307590778 21.7693052,0.343777929 C21.7127245,0.379965079 21.6844342,0.43047631 21.6844342,0.495311621 C21.6844342,0.554869639 21.7123261,0.599349678 21.7681099,0.628751738 C21.8039709,0.648353111 21.8804744,0.67134703 21.9976203,0.697733494 L22.3012435,0.766715249 C22.4343277,0.796871208 22.5347385,0.837204802 22.602476,0.887716033 C22.7076683,0.966121526 22.7602644,1.07958332 22.7602644,1.22810142 C22.7602644,1.38038901 22.698703,1.50685556 22.5755802,1.60750107 C22.4524574,1.70814658 22.2785315,1.75846934 22.0538026,1.75846934 C21.8242921,1.75846934 21.6437917,1.70890048 21.5123013,1.60976277 C21.380811,1.51062505 21.3150658,1.37435782 21.3150658,1.20096105 L21.6665037,1.20096105 C21.6776604,1.27710485 21.6995755,1.33402422 21.7322489,1.37171917 C21.7920172,1.44032398 21.8944203,1.47462638 22.0394582,1.47462638 Z" id="Path"></path>
                        </g>
                        <g id="Funko/Icon/Crown/Deactive" transform="translate(5.073678, 0.000000)" fill="#FFC700">
                            <path d="M13.4131551,3.265998 C13.4209969,2.61163144 14.0018714,2.08091109 14.7099725,2.08049515 C15.4178476,2.0800792 15.9857014,2.61003119 15.9772917,3.26481371 C15.9697248,3.91875855 15.3890763,4.44913227 14.6810485,4.44954821 C14.6223149,4.44954821 14.5641065,4.44593178 14.5074433,4.43877401 C14.5074433,4.43877401 13.8675176,5.9996812 12.5876662,9.12149556 L3.22444222,9.12128758 C2.0224056,6.00624007 1.4213873,4.44871632 1.4213873,4.44871632 C1.37101455,4.45392722 1.31975625,4.45671176 1.26760628,4.45671176 C0.559578456,4.45671176 -0.00812877408,3.92668466 0,3.27322509 C0.00800052144,2.61871988 0.588282617,2.08806886 1.2965303,2.08765291 C2.00440545,2.08730629 2.57167296,2.61732761 2.56375794,3.27162485 C2.55954392,3.58619105 2.42469544,3.87114987 2.20560329,4.08299433 C3.0151156,5.39568474 3.82595929,6.42925115 4.448693,6.42925115 C5.25909086,6.42848858 5.36072191,4.44155277 5.24289438,2.56672642 C4.58693713,2.46059622 4.09372025,1.93182274 4.10156198,1.29420962 C4.1100633,0.581535283 4.74346031,0.00320626329 5.51554116,0.00278453857 C6.28680975,0.0023685909 6.9057081,0.580004364 6.89727397,1.29302533 C6.89106287,1.80546708 6.56286438,2.24833581 6.09242151,2.45781745 C6.47358223,4.34918351 6.97272316,6.03350583 7.94029767,6.03315343 C7.95072889,6.03280681 7.9624182,6.03197491 7.97343571,6.03072129 C8.92659707,6.00556223 9.46146552,4.32763511 9.8854443,2.44655798 C9.43149715,2.23374298 9.12224341,1.79747742 9.12860107,1.29184681 C9.13710239,0.578750744 9.77035283,0.000421724722 10.5419879,0 C11.3142886,-0.00041017062 11.9329671,0.577150501 11.9242337,1.29045454 C11.9161721,1.93536407 11.3987643,2.46977017 10.7300123,2.56693439 C10.5653604,4.44231535 10.6187623,6.42987507 11.4293861,6.42973642 C12.054862,6.42925115 12.8947702,5.38643568 13.740236,4.06624088 C13.5341584,3.85516477 13.4093014,3.57416323 13.4131429,3.26599222" id="Icon/Crown/Deactive"></path>
                        </g>
                    </g>
                </g>
            </g>
        </g>
    </g>
</svg>