<?xml version="1.0" encoding="utf-8"?>
<svg version="1.1" id="Layer_1" xmlns="http://www.w3.org/2000/svg" xmlns:xlink="http://www.w3.org/1999/xlink" x="0px" y="0px" viewBox="0 0 24 24" style="enable-background:new 0 0 24 24;" fill="#111111" xml:space="preserve">
<style type="text/css">
	.st0{fill-rule:evenodd;clip-rule:evenodd;enable-background:new;}
</style>
<path class="st0" d="M12,0C5.4,0,0,5.4,0,12c0,6.6,5.4,12,12,12c6.6,0,12-5.4,12-12C24,5.4,18.6,0,12,0z M17.8,16.9l-0.9,0.9
	c-0.2,0.2-0.6,0.2-0.8,0l-4-4l-4,4c-0.2,0.2-0.6,0.2-0.8,0l-0.9-0.9c-0.2-0.2-0.2-0.6,0-0.8l4-4l-4-4c-0.2-0.2-0.2-0.6,0-0.8
	l0.9-0.9c0.2-0.2,0.6-0.2,0.8,0l4,4l4-4c0.2-0.2,0.6-0.2,0.8,0l0.9,0.9c0.2,0.2,0.2,0.6,0,0.8l-4,4l4,4
	C18.1,16.3,18.1,16.7,17.8,16.9z"/>
</svg>
