<?xml version="1.0" encoding="utf-8"?>
<!-- Generator: Adobe Illustrator 25.2.3, SVG Export Plug-In . SVG Version: 6.00 Build 0)  -->
<svg version="1.1" id="Layer_1" xmlns="http://www.w3.org/2000/svg" xmlns:xlink="http://www.w3.org/1999/xlink" x="0px" y="0px"
	 viewBox="0 0 25 29" style="enable-background:new 0 0 25 29;" xml:space="preserve">
<style type="text/css">
	.st0{fill-rule:evenodd;clip-rule:evenodd;}
</style>
<path class="st0" d="M18.2,0.5c0,3.5,2.8,6.3,6.2,6.3c0.2,0,0.4,0,0.6,0v4.9c-0.4,0.1-0.9,0.1-1.4,0.1c-2.2,0-4.2-1-5.5-2.7v0.5
	v10.2c0,3.3-1.7,6.2-4.3,7.9c-1.1,0.7-2.3,1.1-3.6,1.3C9.8,29,9.5,29,9.1,29c-5,0-9.1-4.1-9.1-9.2s4.1-9.2,9.1-9.2
	c0.4,0,0.8,0,1.1,0.1v5c-0.4-0.1-0.7-0.2-1.1-0.2c-2.3,0-4.2,1.9-4.2,4.3c0,2.4,1.9,4.3,4.2,4.3c0.4,0,0.8-0.1,1.1-0.2
	c1.8-0.5,3.1-2.2,3.1-4.1v-8.2v-2V0h4.9V0.5L18.2,0.5C18.2,0.4,18.2,0.4,18.2,0.5C18.2,0.5,18.2,0.5,18.2,0.5z"/>
</svg>
