<?xml version="1.0" encoding="utf-8"?>
<!-- Generator: Adobe Illustrator 25.2.3, SVG Export Plug-In . SVG Version: 6.00 Build 0)  -->
<svg version="1.1" id="Layer_1" xmlns="http://www.w3.org/2000/svg" xmlns:xlink="http://www.w3.org/1999/xlink" x="0px" y="0px"
	 viewBox="0 0 25.3 18.9" style="enable-background:new 0 0 25.3 18.9;" xml:space="preserve">
<path d="M25.1,4c0,0-0.2-1.8-1-2.6c-0.9-1-2.1-1-2.5-1.2C17.9,0,12.7,0,12.7,0S7.4,0,3.8,0.2C3.3,0.3,2.2,0.3,1.3,1.4
	C0.5,2.2,0.2,4,0.2,4S0,6.2,0,8.4v2.1c0,2.2,0.2,4.4,0.2,4.4s0.2,1.8,1,2.6c0.9,1,2.2,1,2.8,1.2c2.1,0.1,8.6,0.2,8.6,0.2
	s5.3,0,8.9-0.2c0.5-0.1,1.6-0.1,2.5-1.2c0.8-0.8,1-2.6,1-2.6s0.2-2.2,0.2-4.4V8.4C25.3,6.2,25.1,4,25.1,4z M9.4,14.1V4.7l7.9,4.7
	L9.4,14.1z"/>
</svg>
