<?xml version="1.0" encoding="utf-8"?>
<!-- Generator: Adobe Illustrator 25.2.3, SVG Export Plug-In . SVG Version: 6.00 Build 0)  -->
<svg version="1.1" id="Layer_1" xmlns="http://www.w3.org/2000/svg" xmlns:xlink="http://www.w3.org/1999/xlink" x="0px" y="0px"
	 viewBox="0 0 13.7 25.6" style="enable-background:new 0 0 13.7 25.6;" xml:space="preserve">
<path d="M13.6,4.4c0,0.2-0.1,0.3-0.3,0.3h-2.3c-1.6,0-1.8,0.6-1.8,1.8V9h4c0.1,0,0.2,0,0.2,0.1c0.1,0.1,0.1,0.2,0.1,0.3l-0.6,4.5
	c0,0.2-0.2,0.3-0.3,0.3H9.1v11c0,0.2-0.1,0.3-0.3,0.3H4.1c-0.2,0-0.3-0.1-0.3-0.3v-11H0.3c-0.2,0-0.3-0.1-0.3-0.3V9.4
	c0-0.2,0.1-0.3,0.3-0.3h3.4V6.2C3.8,2.3,6.1,0,9.9,0c1.6,0,3,0.1,3.5,0.2c0.2,0,0.3,0.2,0.3,0.3v3.8H13.6z"/>
</svg>
