<?xml version="1.0" encoding="utf-8"?>
<!-- Generator: Adobe Illustrator 25.2.3, SVG Export Plug-In . SVG Version: 6.00 Build 0)  -->
<svg version="1.1" id="Layer_1" xmlns="http://www.w3.org/2000/svg" xmlns:xlink="http://www.w3.org/1999/xlink" x="0px" y="0px"
	 viewBox="0 0 25.6 20.6" style="enable-background:new 0 0 25.6 20.6;" xml:space="preserve">
<path d="M22.9,5.1c0,0.2,0,0.5,0,0.7c0,6.9-5.3,14.8-14.8,14.8c-3,0-5.6-0.9-8-2.3c0.5,0,0.8,0.1,1.3,0.1c2.4,0,4.7-0.8,6.4-2.2
	c-2.3,0-4.3-1.5-4.8-3.7c0.3,0.1,0.7,0.1,1,0.1c0.5,0,0.9-0.1,1.4-0.2C2.9,12,1.1,9.8,1.1,7.4c0,0,0,0,0-0.1
	c0.7,0.3,1.5,0.6,2.4,0.7C2.2,7,1.3,5.4,1.3,3.6c0-0.9,0.2-1.8,0.7-2.6C4.5,4,8.4,6.2,12.8,6.3c-0.1-0.3-0.1-0.8-0.1-1.1
	C12.6,2.3,15,0,17.8,0c1.5,0,2.9,0.7,3.8,1.6c1.1-0.2,2.3-0.7,3.3-1.3c-0.3,1.3-1.3,2.2-2.3,2.9c1-0.1,2.1-0.5,3-0.8
	C24.7,3.3,23.9,4.3,22.9,5.1z"/>
</svg>
