<?xml version="1.0" encoding="utf-8"?>
<!-- Generator: Adobe Illustrator 25.2.3, SVG Export Plug-In . SVG Version: 6.00 Build 0)  -->
<svg version="1.1" id="Layer_1" xmlns="http://www.w3.org/2000/svg" xmlns:xlink="http://www.w3.org/1999/xlink" x="0px" y="0px"
	 viewBox="0 0 25.4 25.4" style="enable-background:new 0 0 25.4 25.4;" xml:space="preserve">
<path d="M19.4,7.2c-0.9,0-1.5-0.7-1.5-1.5c0-0.9,0.7-1.5,1.5-1.5c0.9,0,1.5,0.7,1.5,1.5C21,6.6,20.4,7.2,19.4,7.2z"/>
<path d="M12.6,6c-3.6,0-6.6,2.9-6.6,6.6c0,3.6,2.9,6.6,6.6,6.6c3.6,0,6.6-2.9,6.7-6.6C19.3,8.9,16.2,6,12.6,6z M12.7,16.8
	c-2.3,0-4.3-1.9-4.3-4.3c0-2.3,1.9-4.3,4.3-4.3c2.3,0,4.3,1.9,4.3,4.3C16.9,14.9,15,16.8,12.7,16.8z"/>
<path d="M18.6,0H6.8C3.1,0,0,3,0,6.8v11.8c0,3.7,3,6.8,6.8,6.8h11.8c3.7,0,6.8-3,6.8-6.8V6.8C25.4,3.1,22.4,0,18.6,0z M23.2,18.6
	c0,2.5-2.1,4.6-4.6,4.6H6.8c-2.5,0-4.6-2.1-4.6-4.6V6.8c0-2.5,2.1-4.6,4.6-4.6h11.8c2.4,0,4.5,2.1,4.6,4.6V18.6z"/>
</svg>
